<svg width="280" height="18" viewBox="0 0 280 18" fill="none" xmlns="http://www.w3.org/2000/svg">
<g clip-path="url(#clip0_1_349)">
<path d="M7.7154 8.6098L3.26527 4.15975C3.16235 4.05675 3.02495 4 2.87845 4C2.73195 4 2.59455 4.05675 2.49162 4.15975L2.1639 4.48739C1.95065 4.70089 1.95065 5.04788 2.1639 5.26105L5.90078 8.99793L2.15975 12.739C2.05683 12.842 2 12.9793 2 13.1257C2 13.2723 2.05683 13.4096 2.15975 13.5127L2.48748 13.8402C2.59048 13.9433 2.7278 14 2.8743 14C3.0208 14 3.1582 13.9433 3.26113 13.8402L7.7154 9.38613C7.81857 9.2828 7.87524 9.14484 7.87491 8.99817C7.87524 8.85094 7.81857 8.71305 7.7154 8.6098Z" fill="#FDFDFD"/>
</g>
<path d="M22.2429 14.126C21.4122 14.126 20.6702 14.014 20.0169 13.79C19.3729 13.5567 18.8455 13.244 18.4349 12.852L18.8409 11.942C19.2889 12.334 19.7789 12.628 20.3109 12.824C20.8522 13.0107 21.4729 13.104 22.1729 13.104C23.0782 13.104 23.7409 12.95 24.1609 12.642C24.5902 12.3247 24.8049 11.858 24.8049 11.242C24.8049 10.066 24.0582 9.478 22.5649 9.478H20.1569V8.526H22.3409C23.8249 8.526 24.5669 7.95667 24.5669 6.818C24.5669 6.258 24.3662 5.81933 23.9649 5.502C23.5729 5.18467 22.9802 5.026 22.1869 5.026C21.5989 5.026 21.0389 5.11933 20.5069 5.306C19.9842 5.48333 19.5082 5.76333 19.0789 6.146L18.6589 5.236C19.0882 4.83467 19.6202 4.53133 20.2549 4.326C20.8989 4.11133 21.5709 4.004 22.2709 4.004C23.4189 4.004 24.2822 4.25133 24.8609 4.746C25.4395 5.24067 25.7289 5.894 25.7289 6.706C25.7289 7.24733 25.5842 7.70933 25.2949 8.092C25.0149 8.47467 24.6322 8.75467 24.1469 8.932C24.7162 9.08133 25.1595 9.35667 25.4769 9.758C25.8035 10.1593 25.9669 10.668 25.9669 11.284C25.9669 12.1613 25.6589 12.8567 25.0429 13.37C24.4362 13.874 23.5029 14.126 22.2429 14.126ZM27.95 14V7.196H28.986V12.46L32.92 7.196H33.886V14H32.85V8.736L28.916 14H27.95ZM36.1257 14V7.196H37.0637L39.6257 11.746L42.1877 7.196H43.1117V14H42.1037V9.044L39.9057 12.908H39.3317L37.1337 9.044V14H36.1257ZM45.3543 14V7.196H46.4883V10.024H50.1983V7.196H51.3323V14H50.1983V10.948H46.4883V14H45.3543ZM53.571 14V7.196H54.6071V12.46L58.5411 7.196H59.507V14H58.471V8.736L54.537 14H53.571ZM64.8268 14.126C63.7535 14.126 62.9042 13.8133 62.2788 13.188C61.6535 12.5533 61.3408 11.6947 61.3408 10.612C61.3408 9.912 61.4808 9.296 61.7608 8.764C62.0408 8.22267 62.4235 7.80733 62.9088 7.518C63.4035 7.21933 63.9728 7.07 64.6168 7.07C65.5408 7.07 66.2642 7.36867 66.7868 7.966C67.3095 8.554 67.5708 9.366 67.5708 10.402V10.836H62.4468C62.4842 11.6107 62.7082 12.2033 63.1188 12.614C63.5295 13.0153 64.0988 13.216 64.8268 13.216C65.2375 13.216 65.6295 13.1553 66.0028 13.034C66.3762 12.9033 66.7308 12.6933 67.0668 12.404L67.4588 13.202C67.1508 13.4913 66.7588 13.72 66.2828 13.888C65.8068 14.0467 65.3215 14.126 64.8268 14.126ZM64.6448 7.91C64.0008 7.91 63.4922 8.11067 63.1188 8.512C62.7455 8.91333 62.5262 9.44067 62.4608 10.094H66.5908C66.5628 9.40333 66.3808 8.86667 66.0448 8.484C65.7182 8.10133 65.2515 7.91 64.6448 7.91ZM72.9304 14V7.196H78.8664V14H77.7324V8.106H74.0644V14H72.9304ZM83.9482 14.126C83.2855 14.126 82.7115 13.9813 82.2262 13.692C81.7409 13.4027 81.3629 12.9967 81.0922 12.474C80.8309 11.942 80.7002 11.3167 80.7002 10.598C80.7002 9.87933 80.8309 9.25867 81.0922 8.736C81.3629 8.204 81.7409 7.79333 82.2262 7.504C82.7115 7.21467 83.2855 7.07 83.9482 7.07C84.6015 7.07 85.1709 7.21467 85.6562 7.504C86.1509 7.79333 86.5289 8.204 86.7902 8.736C87.0609 9.25867 87.1962 9.87933 87.1962 10.598C87.1962 11.3167 87.0609 11.942 86.7902 12.474C86.5289 12.9967 86.1509 13.4027 85.6562 13.692C85.1709 13.9813 84.6015 14.126 83.9482 14.126ZM83.9482 13.216C84.5829 13.216 85.0915 12.992 85.4742 12.544C85.8569 12.0867 86.0482 11.438 86.0482 10.598C86.0482 9.74867 85.8569 9.1 85.4742 8.652C85.0915 8.204 84.5829 7.98 83.9482 7.98C83.3042 7.98 82.7909 8.204 82.4082 8.652C82.0349 9.1 81.8482 9.74867 81.8482 10.598C81.8482 11.438 82.0349 12.0867 82.4082 12.544C82.7909 12.992 83.3042 13.216 83.9482 13.216ZM88.0452 14L90.8732 10.486L88.2132 7.196H89.5572L91.5312 9.702L93.5192 7.196H94.8492L92.1892 10.486L95.0172 14H93.6732L91.5172 11.298L89.3892 14H88.0452ZM99.0966 14.126C98.434 14.126 97.86 13.9813 97.3746 13.692C96.8893 13.4027 96.5113 12.9967 96.2406 12.474C95.9793 11.942 95.8486 11.3167 95.8486 10.598C95.8486 9.87933 95.9793 9.25867 96.2406 8.736C96.5113 8.204 96.8893 7.79333 97.3746 7.504C97.86 7.21467 98.434 7.07 99.0966 7.07C99.75 7.07 100.319 7.21467 100.805 7.504C101.299 7.79333 101.677 8.204 101.939 8.736C102.209 9.25867 102.345 9.87933 102.345 10.598C102.345 11.3167 102.209 11.942 101.939 12.474C101.677 12.9967 101.299 13.4027 100.805 13.692C100.319 13.9813 99.75 14.126 99.0966 14.126ZM99.0966 13.216C99.7313 13.216 100.24 12.992 100.623 12.544C101.005 12.0867 101.197 11.438 101.197 10.598C101.197 9.74867 101.005 9.1 100.623 8.652C100.24 8.204 99.7313 7.98 99.0966 7.98C98.4526 7.98 97.9393 8.204 97.5566 8.652C97.1833 9.1 96.9966 9.74867 96.9966 10.598C96.9966 11.438 97.1833 12.0867 97.5566 12.544C97.9393 12.992 98.4526 13.216 99.0966 13.216ZM103.442 15.82V13.09H104.156C104.483 12.614 104.716 12.068 104.856 11.452C104.996 10.8267 105.066 10.0753 105.066 9.198V7.196H109.882V13.09H110.96V15.82H109.98V14H104.408V15.82H103.442ZM105.248 13.09H108.804V8.092H106.074V9.394C106.074 10.094 106.004 10.7707 105.864 11.424C105.724 12.0773 105.519 12.6327 105.248 13.09ZM112.469 14V7.196H113.603V9.618H115.661C116.529 9.618 117.187 9.80933 117.635 10.192C118.083 10.5653 118.307 11.0973 118.307 11.788C118.307 12.4693 118.074 13.0107 117.607 13.412C117.15 13.804 116.501 14 115.661 14H112.469ZM119.315 14V7.196H120.449V14H119.315ZM113.603 13.188H115.549C116.072 13.188 116.478 13.076 116.767 12.852C117.066 12.628 117.215 12.278 117.215 11.802C117.215 11.3353 117.071 10.99 116.781 10.766C116.492 10.542 116.081 10.43 115.549 10.43H113.603V13.188ZM126.292 14V7.196H129.61C130.412 7.196 131.005 7.35 131.388 7.658C131.77 7.95667 131.962 8.4 131.962 8.988C131.962 9.34267 131.859 9.65067 131.654 9.912C131.458 10.1733 131.187 10.3647 130.842 10.486C131.262 10.5887 131.588 10.7847 131.822 11.074C132.064 11.3633 132.186 11.7133 132.186 12.124C132.186 12.7027 131.971 13.16 131.542 13.496C131.112 13.832 130.506 14 129.722 14H126.292ZM127.37 10.15H129.554C129.983 10.15 130.314 10.0567 130.548 9.87C130.781 9.674 130.898 9.39867 130.898 9.044C130.898 8.69867 130.781 8.43267 130.548 8.246C130.314 8.05933 129.983 7.966 129.554 7.966H127.37V10.15ZM127.37 13.23H129.68C130.146 13.23 130.501 13.132 130.744 12.936C130.986 12.74 131.108 12.4507 131.108 12.068C131.108 11.6947 130.986 11.41 130.744 11.214C130.501 11.018 130.146 10.92 129.68 10.92H127.37V13.23ZM137.544 14V7.196H142.318V8.106H138.678V14H137.544ZM146.47 14.126C145.807 14.126 145.233 13.9813 144.748 13.692C144.262 13.4027 143.884 12.9967 143.614 12.474C143.352 11.942 143.222 11.3167 143.222 10.598C143.222 9.87933 143.352 9.25867 143.614 8.736C143.884 8.204 144.262 7.79333 144.748 7.504C145.233 7.21467 145.807 7.07 146.47 7.07C147.123 7.07 147.692 7.21467 148.178 7.504C148.672 7.79333 149.05 8.204 149.312 8.736C149.582 9.25867 149.718 9.87933 149.718 10.598C149.718 11.3167 149.582 11.942 149.312 12.474C149.05 12.9967 148.672 13.4027 148.178 13.692C147.692 13.9813 147.123 14.126 146.47 14.126ZM146.47 13.216C147.104 13.216 147.613 12.992 147.996 12.544C148.378 12.0867 148.57 11.438 148.57 10.598C148.57 9.74867 148.378 9.1 147.996 8.652C147.613 8.204 147.104 7.98 146.47 7.98C145.826 7.98 145.312 8.204 144.93 8.652C144.556 9.1 144.37 9.74867 144.37 10.598C144.37 11.438 144.556 12.0867 144.93 12.544C145.312 12.992 145.826 13.216 146.47 13.216ZM151.571 16.52V7.196H152.677V8.414C152.883 7.994 153.186 7.66733 153.587 7.434C153.998 7.19133 154.474 7.07 155.015 7.07C155.622 7.07 156.149 7.21467 156.597 7.504C157.055 7.784 157.405 8.19 157.647 8.722C157.899 9.24467 158.025 9.87 158.025 10.598C158.025 11.3167 157.899 11.942 157.647 12.474C157.405 12.9967 157.055 13.4027 156.597 13.692C156.149 13.9813 155.622 14.126 155.015 14.126C154.493 14.126 154.026 14.0093 153.615 13.776C153.205 13.5427 152.901 13.2207 152.705 12.81V16.52H151.571ZM154.777 13.216C155.412 13.216 155.921 12.992 156.303 12.544C156.686 12.0867 156.877 11.438 156.877 10.598C156.877 9.74867 156.686 9.1 156.303 8.652C155.921 8.204 155.412 7.98 154.777 7.98C154.143 7.98 153.634 8.204 153.251 8.652C152.869 9.1 152.677 9.74867 152.677 10.598C152.677 11.438 152.869 12.0867 153.251 12.544C153.634 12.992 154.143 13.216 154.777 13.216ZM159.856 14V7.196H160.99V9.618H163.048C163.916 9.618 164.574 9.80933 165.022 10.192C165.47 10.5653 165.694 11.0973 165.694 11.788C165.694 12.4693 165.461 13.0107 164.994 13.412C164.537 13.804 163.888 14 163.048 14H159.856ZM166.702 14V7.196H167.836V14H166.702ZM160.99 13.188H162.936C163.459 13.188 163.865 13.076 164.154 12.852C164.453 12.628 164.602 12.278 164.602 11.802C164.602 11.3353 164.458 10.99 164.168 10.766C163.879 10.542 163.468 10.43 162.936 10.43H160.99V13.188Z" fill="#FDFDFD"/>
<defs>
<clipPath id="clip0_1_349">
<rect width="9.87491" height="14" fill="white"/>
</clipPath>
</defs>
</svg>
